<?xml version="1.0" encoding="UTF-8"?>
<!DOCTYPE svg PUBLIC "-//W3C//DTD SVG 1.1//EN" "http://www.w3.org/Graphics/SVG/1.1/DTD/svg11.dtd">
<svg xmlns="http://www.w3.org/2000/svg" version="1.1" width="500px" height="500px" style="shape-rendering:geometricPrecision; text-rendering:geometricPrecision; image-rendering:optimizeQuality; fill-rule:evenodd; clip-rule:evenodd" xmlns:xlink="http://www.w3.org/1999/xlink">
<g><path style="opacity:0.6" fill="#86272e" d="M 263.5,53.5 C 264.768,55.9052 265.435,58.5718 265.5,61.5C 264.883,61.3893 264.383,61.056 264,60.5C 263.503,58.1902 263.337,55.8568 263.5,53.5 Z"/></g>
<g><path style="opacity:1" fill="#8d2934" d="M 263.5,53.5 C 260.463,59.2265 257.129,64.8932 253.5,70.5C 255.72,63.7295 258.72,57.3962 262.5,51.5C 263.298,51.9569 263.631,52.6236 263.5,53.5 Z"/></g>
<g><path style="opacity:0.878" fill="#77262d" d="M 266.5,65.5 C 268.538,69.9399 270.204,74.6066 271.5,79.5C 270.143,78.4097 269.143,77.0764 268.5,75.5C 267.626,72.2107 266.959,68.8774 266.5,65.5 Z"/></g>
<g><path style="opacity:1" fill="#952832" d="M 253.5,70.5 C 253.41,72.6963 253.077,74.863 252.5,77C 252.316,78.3756 251.649,79.2089 250.5,79.5C 250.928,76.2154 251.928,73.2154 253.5,70.5 Z"/></g>
<g><path style="opacity:1" fill="#ec1b24" d="M 263.5,53.5 C 263.337,55.8568 263.503,58.1902 264,60.5C 264.383,61.056 264.883,61.3893 265.5,61.5C 266.434,62.5676 266.768,63.901 266.5,65.5C 266.959,68.8774 267.626,72.2107 268.5,75.5C 270.589,83.8708 273.589,91.8708 277.5,99.5C 278.593,101.349 279.926,103.016 281.5,104.5C 282.674,105.514 283.34,106.847 283.5,108.5C 283.292,112.085 284.625,114.751 287.5,116.5C 287.833,119.167 288.167,121.833 288.5,124.5C 289.5,124.5 290.5,124.5 291.5,124.5C 291.427,126.027 292.094,127.027 293.5,127.5C 293.209,132.596 295.209,136.263 299.5,138.5C 299.427,140.027 300.094,141.027 301.5,141.5C 301.045,144.931 302.379,147.264 305.5,148.5C 305.343,149.873 305.51,151.207 306,152.5C 308.914,156.657 311.58,160.99 314,165.5C 315.113,166.305 316.279,166.972 317.5,167.5C 318.193,172.852 320.86,176.852 325.5,179.5C 325.427,181.027 326.094,182.027 327.5,182.5C 327.427,184.027 328.094,185.027 329.5,185.5C 329.738,187.404 330.738,188.738 332.5,189.5C 332.5,191.167 332.5,192.833 332.5,194.5C 334.514,194.392 336.18,195.058 337.5,196.5C 337.738,198.404 338.738,199.738 340.5,200.5C 340.738,202.404 341.738,203.738 343.5,204.5C 343.343,205.873 343.51,207.207 344,208.5C 345.992,209.665 347.825,210.998 349.5,212.5C 349.427,214.027 350.094,215.027 351.5,215.5C 352.08,217.749 353.413,219.415 355.5,220.5C 356.08,222.749 357.413,224.415 359.5,225.5C 359.738,227.404 360.738,228.738 362.5,229.5C 363.08,231.749 364.413,233.415 366.5,234.5C 367.419,237.089 369.086,239.089 371.5,240.5C 371.427,242.027 372.094,243.027 373.5,243.5C 374.674,244.514 375.34,245.847 375.5,247.5C 375.309,251.288 376.642,254.288 379.5,256.5C 379.12,258.698 379.787,260.365 381.5,261.5C 381.804,264.522 382.304,267.522 383,270.5C 383.383,271.056 383.883,271.389 384.5,271.5C 384.336,274.187 384.503,276.854 385,279.5C 385.2,281.32 386.034,282.653 387.5,283.5C 387.5,283.833 387.5,284.167 387.5,284.5C 387.613,289.518 387.947,294.518 388.5,299.5C 388.666,307.174 388.5,314.841 388,322.5C 386.545,329.424 385.712,336.424 385.5,343.5C 384.076,345.515 383.41,347.848 383.5,350.5C 383.5,350.833 383.5,351.167 383.5,351.5C 381.787,352.635 381.12,354.302 381.5,356.5C 377.322,360.05 375.322,364.717 375.5,370.5C 375.5,370.833 375.5,371.167 375.5,371.5C 373.824,372.183 373.157,373.517 373.5,375.5C 371.743,376.292 370.409,377.625 369.5,379.5C 368.571,380.689 368.238,382.022 368.5,383.5C 364.103,387.959 360.436,392.959 357.5,398.5C 354.757,400.239 352.757,402.573 351.5,405.5C 349.833,407.833 347.833,409.833 345.5,411.5C 343.883,412.038 342.216,412.371 340.5,412.5C 340.5,413.5 340.5,414.5 340.5,415.5C 338.856,415.714 337.356,415.38 336,414.5C 336,415.833 336,417.167 336,418.5C 333.665,420.4 331.498,422.4 329.5,424.5C 324.405,425.883 319.738,428.049 315.5,431C 313.808,432.307 312.475,433.807 311.5,435.5C 311.167,435.5 310.833,435.5 310.5,435.5C 305.418,436.248 301.085,438.248 297.5,441.5C 297.167,441.5 296.833,441.5 296.5,441.5C 294.102,441.259 292.102,441.926 290.5,443.5C 287.848,443.41 285.515,444.076 283.5,445.5C 272.903,447.325 262.236,448.158 251.5,448C 250.957,443.356 253.291,440.856 258.5,440.5C 258.5,439.5 258.5,438.5 258.5,437.5C 267.167,432.167 274.167,425.167 279.5,416.5C 282.323,415.008 283.99,412.674 284.5,409.5C 284.328,408.508 284.662,407.842 285.5,407.5C 286.906,407.027 287.573,406.027 287.5,404.5C 289.104,403.713 289.771,402.38 289.5,400.5C 291.104,399.713 291.771,398.38 291.5,396.5C 293.823,393.865 295.656,390.865 297,387.5C 297.497,385.19 297.663,382.857 297.5,380.5C 298.793,379.158 299.626,377.491 300,375.5C 302.416,359.996 301.75,344.662 298,329.5C 297.626,327.509 296.793,325.842 295.5,324.5C 295.086,320.343 294.086,316.343 292.5,312.5C 292.856,309.224 291.856,306.557 289.5,304.5C 289.158,303.662 288.492,303.328 287.5,303.5C 287.5,303.167 287.5,302.833 287.5,302.5C 286.639,297.557 284.639,293.224 281.5,289.5C 279.808,285.11 277.808,280.777 275.5,276.5C 275.043,275.702 274.376,275.369 273.5,275.5C 273.715,273.821 273.048,272.821 271.5,272.5C 271.5,272.167 271.5,271.833 271.5,271.5C 268.775,263.449 264.775,256.116 259.5,249.5C 258.326,248.486 257.66,247.153 257.5,245.5C 256.633,242.092 255.467,238.758 254,235.5C 253.292,234.619 252.458,233.953 251.5,233.5C 250.514,228.851 249.514,224.184 248.5,219.5C 247.409,215.052 246.409,210.552 245.5,206C 247.181,202.412 247.848,198.578 247.5,194.5C 246.167,194.5 244.833,194.5 243.5,194.5C 241.375,188.313 239.708,181.98 238.5,175.5C 238.168,157.45 238.835,139.45 240.5,121.5C 241.903,116.609 242.57,111.609 242.5,106.5C 242.5,106.167 242.5,105.833 242.5,105.5C 245.164,99.887 246.831,93.887 247.5,87.5C 249.585,85.3155 250.585,82.6489 250.5,79.5C 251.649,79.2089 252.316,78.3756 252.5,77C 253.077,74.863 253.41,72.6963 253.5,70.5C 257.129,64.8932 260.463,59.2265 263.5,53.5 Z"/></g>
<g><path style="opacity:0.851" fill="#83242d" d="M 250.5,79.5 C 250.585,82.6489 249.585,85.3155 247.5,87.5C 247.733,84.4582 248.733,81.7916 250.5,79.5 Z"/></g>
<g><path style="opacity:1" fill="#bf292e" d="M 268.5,75.5 C 269.143,77.0764 270.143,78.4097 271.5,79.5C 272.363,81.4214 273.029,83.4214 273.5,85.5C 273.12,87.698 273.787,89.3646 275.5,90.5C 276.537,91.9303 277.204,93.597 277.5,95.5C 277.5,96.8333 277.5,98.1667 277.5,99.5C 273.589,91.8708 270.589,83.8708 268.5,75.5 Z"/></g>
<g><path style="opacity:1" fill="#832830" d="M 273.5,85.5 C 274.537,86.9303 275.204,88.597 275.5,90.5C 273.787,89.3646 273.12,87.698 273.5,85.5 Z"/></g>
<g><path style="opacity:0.98" fill="#7b272c" d="M 247.5,87.5 C 246.831,93.887 245.164,99.887 242.5,105.5C 243.565,99.2309 245.231,93.2309 247.5,87.5 Z"/></g>
<g><path style="opacity:1" fill="#872933" d="M 277.5,95.5 C 279.592,98.0884 280.925,101.088 281.5,104.5C 279.926,103.016 278.593,101.349 277.5,99.5C 277.5,98.1667 277.5,96.8333 277.5,95.5 Z"/></g>
<g><path style="opacity:1" fill="#972833" d="M 283.5,108.5 C 285.341,110.849 286.674,113.515 287.5,116.5C 284.625,114.751 283.292,112.085 283.5,108.5 Z"/></g>
<g><path style="opacity:1" fill="#962835" d="M 242.5,106.5 C 242.57,111.609 241.903,116.609 240.5,121.5C 240.167,121.5 239.833,121.5 239.5,121.5C 239.763,116.23 240.763,111.23 242.5,106.5 Z"/></g>
<g><path style="opacity:1" fill="#ba2830" d="M 287.5,116.5 C 289.341,118.849 290.674,121.515 291.5,124.5C 290.5,124.5 289.5,124.5 288.5,124.5C 288.167,121.833 287.833,119.167 287.5,116.5 Z"/></g>
<g><path style="opacity:0.349" fill="#701d20" d="M 291.5,124.5 C 292.906,124.973 293.573,125.973 293.5,127.5C 292.094,127.027 291.427,126.027 291.5,124.5 Z"/></g>
<g><path style="opacity:1" fill="#802733" d="M 239.5,121.5 C 239.698,126.75 239.031,131.75 237.5,136.5C 237.444,131.269 238.111,126.269 239.5,121.5 Z"/></g>
<g><path style="opacity:1" fill="#a92632" d="M 195.5,140.5 C 195.5,149.5 195.5,158.5 195.5,167.5C 194.508,159.684 194.174,151.684 194.5,143.5C 194.826,139.116 194.492,134.783 193.5,130.5C 192.817,130.863 192.15,131.196 191.5,131.5C 192.183,129.824 193.517,129.157 195.5,129.5C 195.5,133.167 195.5,136.833 195.5,140.5 Z"/></g>
<g><path style="opacity:0.324" fill="#62242f" d="M 195.5,140.5 C 195.5,136.833 195.5,133.167 195.5,129.5C 193.517,129.157 192.183,129.824 191.5,131.5C 190.833,131.833 190.167,132.167 189.5,132.5C 190.005,128.634 192.005,127.301 195.5,128.5C 196.809,132.649 196.809,136.649 195.5,140.5 Z"/></g>
<g><path style="opacity:0.314" fill="#601e26" d="M 295.5,131.5 C 296.906,131.973 297.573,132.973 297.5,134.5C 296.094,134.027 295.427,133.027 295.5,131.5 Z"/></g>
<g><path style="opacity:1" fill="#b82a2d" d="M 293.5,127.5 C 294.674,128.514 295.34,129.847 295.5,131.5C 295.427,133.027 296.094,134.027 297.5,134.5C 298.674,135.514 299.34,136.847 299.5,138.5C 295.209,136.263 293.209,132.596 293.5,127.5 Z"/></g>
<g><path style="opacity:0.357" fill="#632029" d="M 299.5,138.5 C 300.906,138.973 301.573,139.973 301.5,141.5C 300.094,141.027 299.427,140.027 299.5,138.5 Z"/></g>
<g><path style="opacity:1" fill="#9b2a34" d="M 189.5,132.5 C 188.38,138.076 185.713,142.743 181.5,146.5C 183.664,141.5 186.331,136.833 189.5,132.5 Z"/></g>
<g><path style="opacity:1" fill="#a2282e" d="M 301.5,141.5 C 303.083,143.663 304.416,145.996 305.5,148.5C 302.379,147.264 301.045,144.931 301.5,141.5 Z"/></g>
<g><path style="opacity:1" fill="#a52931" d="M 239.5,121.5 C 239.833,121.5 240.167,121.5 240.5,121.5C 238.835,139.45 238.168,157.45 238.5,175.5C 238.167,175.5 237.833,175.5 237.5,175.5C 236.187,162.493 236.187,149.493 237.5,136.5C 239.031,131.75 239.698,126.75 239.5,121.5 Z"/></g>
<g><path style="opacity:0.592" fill="#872534" d="M 181.5,146.5 C 181.002,149.326 179.669,151.66 177.5,153.5C 178.079,150.669 179.412,148.336 181.5,146.5 Z"/></g>
<g><path style="opacity:1" fill="#ec1b24" d="M 194.5,143.5 C 193.089,149.441 192.423,155.608 192.5,162C 193.343,172.141 194.676,181.974 196.5,191.5C 196.833,191.5 197.167,191.5 197.5,191.5C 197.5,191.833 197.5,192.167 197.5,192.5C 197.335,195.518 197.502,198.518 198,201.5C 198.278,202.416 198.778,203.082 199.5,203.5C 199.5,203.833 199.5,204.167 199.5,204.5C 199.42,207.781 200.087,210.781 201.5,213.5C 201.337,215.857 201.503,218.19 202,220.5C 202.383,221.056 202.883,221.389 203.5,221.5C 203.338,223.527 203.505,225.527 204,227.5C 204.383,228.056 204.883,228.389 205.5,228.5C 206.114,232.135 206.448,235.802 206.5,239.5C 207.5,239.5 208.5,239.5 209.5,239.5C 209.235,243.653 210.569,246.987 213.5,249.5C 213.12,251.698 213.787,253.365 215.5,254.5C 216.674,255.514 217.34,256.847 217.5,258.5C 218.776,263.993 220.443,269.326 222.5,274.5C 223.5,274.5 224.5,274.5 225.5,274.5C 226.674,275.514 227.34,276.847 227.5,278.5C 227.372,280.655 227.872,282.655 229,284.5C 230.391,287.336 232.224,289.669 234.5,291.5C 234.343,292.873 234.51,294.207 235,295.5C 236.067,297.692 237.567,299.358 239.5,300.5C 239.993,302.806 240.326,305.139 240.5,307.5C 241.5,307.5 242.5,307.5 243.5,307.5C 243.833,310.167 244.167,312.833 244.5,315.5C 245.5,315.5 246.5,315.5 247.5,315.5C 247.198,319.38 248.531,322.38 251.5,324.5C 251.946,330.393 253.28,336.06 255.5,341.5C 257.155,351.603 256.822,361.603 254.5,371.5C 253.37,375.557 252.037,379.557 250.5,383.5C 244.277,384.417 241.61,388.084 242.5,394.5C 237.814,393.984 235.481,395.984 235.5,400.5C 234.89,401.391 234.557,402.391 234.5,403.5C 234.167,403.5 233.833,403.5 233.5,403.5C 229.119,406.52 224.453,409.187 219.5,411.5C 218.807,412.518 218.141,413.518 217.5,414.5C 214.68,414.087 212.68,415.087 211.5,417.5C 205.133,418.195 199.799,420.862 195.5,425.5C 195.167,425.5 194.833,425.5 194.5,425.5C 187.174,426.79 179.841,426.79 172.5,425.5C 172.167,425.5 171.833,425.5 171.5,425.5C 171.027,424.094 170.027,423.427 168.5,423.5C 168.586,422.504 168.252,421.671 167.5,421C 165.065,419.285 162.398,418.118 159.5,417.5C 158.167,414.167 155.833,411.833 152.5,410.5C 151.415,408.413 149.749,407.08 147.5,406.5C 146.167,404.833 144.833,403.167 143.5,401.5C 142.864,399.205 141.531,397.539 139.5,396.5C 138.094,396.027 137.427,395.027 137.5,393.5C 133.604,387.385 129.938,381.052 126.5,374.5C 126.043,373.702 125.376,373.369 124.5,373.5C 124.167,372.833 123.833,372.167 123.5,371.5C 123.843,369.517 123.176,368.183 121.5,367.5C 121.493,363.446 120.16,360.113 117.5,357.5C 117.946,354.99 117.28,352.99 115.5,351.5C 114.989,346.46 114.156,341.46 113,336.5C 112.617,335.944 112.117,335.611 111.5,335.5C 111.431,330.146 111.098,324.813 110.5,319.5C 110.39,308.815 110.723,298.148 111.5,287.5C 113.904,282.136 115.571,276.469 116.5,270.5C 119.357,263.123 121.69,255.456 123.5,247.5C 123.66,245.847 124.326,244.514 125.5,243.5C 127.669,241.66 129.002,239.326 129.5,236.5C 131.669,234.66 133.002,232.326 133.5,229.5C 135.669,227.66 137.002,225.326 137.5,222.5C 141.023,220.127 143.023,216.794 143.5,212.5C 144.815,211.524 146.148,210.524 147.5,209.5C 148.588,205.674 149.921,202.007 151.5,198.5C 154.08,196.911 155.413,194.578 155.5,191.5C 157.669,189.66 159.002,187.326 159.5,184.5C 161.669,182.66 163.002,180.326 163.5,177.5C 165.669,175.66 167.002,173.326 167.5,170.5C 171.018,168.139 173.018,164.805 173.5,160.5C 175.104,159.713 175.771,158.38 175.5,156.5C 176.906,156.027 177.573,155.027 177.5,153.5C 179.669,151.66 181.002,149.326 181.5,146.5C 185.713,142.743 188.38,138.076 189.5,132.5C 190.167,132.167 190.833,131.833 191.5,131.5C 192.15,131.196 192.817,130.863 193.5,130.5C 194.492,134.783 194.826,139.116 194.5,143.5 Z"/></g>
<g><path style="opacity:0.329" fill="#621d25" d="M 177.5,153.5 C 177.573,155.027 176.906,156.027 175.5,156.5C 175.427,154.973 176.094,153.973 177.5,153.5 Z"/></g>
<g><path style="opacity:0.984" fill="#7e2938" d="M 175.5,156.5 C 175.771,158.38 175.104,159.713 173.5,160.5C 173.66,158.847 174.326,157.514 175.5,156.5 Z"/></g>
<g><path style="opacity:1" fill="#a22632" d="M 305.5,148.5 C 310.247,154.319 314.247,160.652 317.5,167.5C 316.279,166.972 315.113,166.305 314,165.5C 311.58,160.99 308.914,156.657 306,152.5C 305.51,151.207 305.343,149.873 305.5,148.5 Z"/></g>
<g><path style="opacity:1" fill="#92282d" d="M 173.5,160.5 C 173.018,164.805 171.018,168.139 167.5,170.5C 169,166.827 171,163.494 173.5,160.5 Z"/></g>
<g><path style="opacity:1" fill="#a42733" d="M 317.5,167.5 C 320.66,171.148 323.327,175.148 325.5,179.5C 320.86,176.852 318.193,172.852 317.5,167.5 Z"/></g>
<g><path style="opacity:0.455" fill="#7a2230" d="M 167.5,170.5 C 167.002,173.326 165.669,175.66 163.5,177.5C 164.079,174.669 165.412,172.336 167.5,170.5 Z"/></g>
<g><path style="opacity:0.133" fill="#6b2129" d="M 237.5,175.5 C 237.833,175.5 238.167,175.5 238.5,175.5C 239.053,180.482 239.387,185.482 239.5,190.5C 238.111,185.731 237.444,180.731 237.5,175.5 Z"/></g>
<g><path style="opacity:0.867" fill="#792b25" d="M 325.5,179.5 C 326.906,179.973 327.573,180.973 327.5,182.5C 326.094,182.027 325.427,181.027 325.5,179.5 Z"/></g>
<g><path style="opacity:0.49" fill="#842831" d="M 163.5,177.5 C 163.002,180.326 161.669,182.66 159.5,184.5C 160.079,181.669 161.412,179.336 163.5,177.5 Z"/></g>
<g><path style="opacity:0.898" fill="#822830" d="M 327.5,182.5 C 328.906,182.973 329.573,183.973 329.5,185.5C 328.094,185.027 327.427,184.027 327.5,182.5 Z"/></g>
<g><path style="opacity:1" fill="#ce272e" d="M 194.5,143.5 C 194.174,151.684 194.508,159.684 195.5,167.5C 195.5,169.167 195.5,170.833 195.5,172.5C 195.557,178.851 195.89,185.185 196.5,191.5C 194.676,181.974 193.343,172.141 192.5,162C 192.423,155.608 193.089,149.441 194.5,143.5 Z"/></g>
<g><path style="opacity:0.122" fill="#671f27" d="M 195.5,172.5 C 196.636,178.641 197.303,184.974 197.5,191.5C 197.167,191.5 196.833,191.5 196.5,191.5C 195.89,185.185 195.557,178.851 195.5,172.5 Z"/></g>
<g><path style="opacity:0.949" fill="#832531" d="M 329.5,185.5 C 331.262,186.262 332.262,187.596 332.5,189.5C 330.738,188.738 329.738,187.404 329.5,185.5 Z"/></g>
<g><path style="opacity:0.537" fill="#82242b" d="M 159.5,184.5 C 159.002,187.326 157.669,189.66 155.5,191.5C 156.079,188.669 157.412,186.336 159.5,184.5 Z"/></g>
<g><path style="opacity:1" fill="#ad282d" d="M 332.5,189.5 C 334.547,191.55 336.214,193.883 337.5,196.5C 336.18,195.058 334.514,194.392 332.5,194.5C 332.5,192.833 332.5,191.167 332.5,189.5 Z"/></g>
<g><path style="opacity:0.502" fill="#75262c" d="M 239.5,191.5 C 241.265,194.123 241.932,197.123 241.5,200.5C 240.343,197.727 239.676,194.727 239.5,191.5 Z"/></g>
<g><path style="opacity:0.588" fill="#8b2530" d="M 155.5,191.5 C 155.413,194.578 154.08,196.911 151.5,198.5C 152.079,195.669 153.412,193.336 155.5,191.5 Z"/></g>
<g><path style="opacity:0.953" fill="#7a272d" d="M 337.5,196.5 C 339.262,197.262 340.262,198.596 340.5,200.5C 338.738,199.738 337.738,198.404 337.5,196.5 Z"/></g>
<g><path style="opacity:1" fill="#e0202a" d="M 238.5,175.5 C 239.708,181.98 241.375,188.313 243.5,194.5C 244.833,194.5 246.167,194.5 247.5,194.5C 247.848,198.578 247.181,202.412 245.5,206C 246.409,210.552 247.409,215.052 248.5,219.5C 247.833,219.167 247.167,218.833 246.5,218.5C 245.596,217.791 245.263,216.791 245.5,215.5C 245.59,212.848 244.924,210.515 243.5,208.5C 243.829,205.772 243.163,203.438 241.5,201.5C 241.5,201.167 241.5,200.833 241.5,200.5C 241.932,197.123 241.265,194.123 239.5,191.5C 239.5,191.167 239.5,190.833 239.5,190.5C 239.387,185.482 239.053,180.482 238.5,175.5 Z"/></g>
<g><path style="opacity:0.612" fill="#80242f" d="M 197.5,192.5 C 198.687,195.946 199.354,199.613 199.5,203.5C 198.778,203.082 198.278,202.416 198,201.5C 197.502,198.518 197.335,195.518 197.5,192.5 Z"/></g>
<g><path style="opacity:0.718" fill="#872629" d="M 340.5,200.5 C 342.262,201.262 343.262,202.596 343.5,204.5C 341.738,203.738 340.738,202.404 340.5,200.5 Z"/></g>
<g><path style="opacity:0.741" fill="#77252d" d="M 241.5,201.5 C 243.163,203.438 243.829,205.772 243.5,208.5C 242.388,206.401 241.721,204.067 241.5,201.5 Z"/></g>
<g><path style="opacity:1" fill="#a72534" d="M 151.5,198.5 C 149.921,202.007 148.588,205.674 147.5,209.5C 146.148,210.524 144.815,211.524 143.5,212.5C 145.664,207.5 148.331,202.833 151.5,198.5 Z"/></g>
<g><path style="opacity:0.8" fill="#77232f" d="M 199.5,204.5 C 200.913,207.219 201.58,210.219 201.5,213.5C 200.087,210.781 199.42,207.781 199.5,204.5 Z"/></g>
<g><path style="opacity:1" fill="#9c272f" d="M 343.5,204.5 C 345.878,206.878 347.878,209.545 349.5,212.5C 347.825,210.998 345.992,209.665 344,208.5C 343.51,207.207 343.343,205.873 343.5,204.5 Z"/></g>
<g><path style="opacity:0.435" fill="#72242c" d="M 243.5,208.5 C 244.924,210.515 245.59,212.848 245.5,215.5C 244.076,213.485 243.41,211.152 243.5,208.5 Z"/></g>
<g><path style="opacity:0.89" fill="#832530" d="M 349.5,212.5 C 350.906,212.973 351.573,213.973 351.5,215.5C 350.094,215.027 349.427,214.027 349.5,212.5 Z"/></g>
<g><path style="opacity:1" fill="#9f2632" d="M 143.5,212.5 C 143.023,216.794 141.023,220.127 137.5,222.5C 139,218.827 141,215.494 143.5,212.5 Z"/></g>
<g><path style="opacity:0.784" fill="#80262f" d="M 351.5,215.5 C 353.587,216.585 354.92,218.251 355.5,220.5C 353.413,219.415 352.08,217.749 351.5,215.5 Z"/></g>
<g><path style="opacity:0.753" fill="#9a2731" d="M 201.5,213.5 C 202.768,215.905 203.435,218.572 203.5,221.5C 202.883,221.389 202.383,221.056 202,220.5C 201.503,218.19 201.337,215.857 201.5,213.5 Z"/></g>
<g><path style="opacity:0.769" fill="#85213b" d="M 355.5,220.5 C 357.587,221.585 358.92,223.251 359.5,225.5C 357.413,224.415 356.08,222.749 355.5,220.5 Z"/></g>
<g><path style="opacity:0.8" fill="#842a32" d="M 137.5,222.5 C 137.002,225.326 135.669,227.66 133.5,229.5C 134.079,226.669 135.412,224.336 137.5,222.5 Z"/></g>
<g><path style="opacity:0.973" fill="#882632" d="M 359.5,225.5 C 361.262,226.262 362.262,227.596 362.5,229.5C 360.738,228.738 359.738,227.404 359.5,225.5 Z"/></g>
<g><path style="opacity:0.749" fill="#932a32" d="M 203.5,221.5 C 204.924,223.515 205.59,225.848 205.5,228.5C 204.883,228.389 204.383,228.056 204,227.5C 203.505,225.527 203.338,223.527 203.5,221.5 Z"/></g>
<g><path style="opacity:0.655" fill="#842934" d="M 246.5,218.5 C 247.167,218.833 247.833,219.167 248.5,219.5C 249.514,224.184 250.514,228.851 251.5,233.5C 249.256,228.767 247.589,223.767 246.5,218.5 Z"/></g>
<g><path style="opacity:1" fill="#8d242e" d="M 362.5,229.5 C 364.587,230.585 365.92,232.251 366.5,234.5C 364.413,233.415 363.08,231.749 362.5,229.5 Z"/></g>
<g><path style="opacity:0.533" fill="#7e262f" d="M 133.5,229.5 C 133.002,232.326 131.669,234.66 129.5,236.5C 130.079,233.669 131.412,231.336 133.5,229.5 Z"/></g>
<g><path style="opacity:1" fill="#af2734" d="M 205.5,228.5 C 207.204,231.939 208.538,235.605 209.5,239.5C 208.5,239.5 207.5,239.5 206.5,239.5C 206.448,235.802 206.114,232.135 205.5,228.5 Z"/></g>
<g><path style="opacity:0.827" fill="#892b2d" d="M 366.5,234.5 C 368.914,235.911 370.581,237.911 371.5,240.5C 369.086,239.089 367.419,237.089 366.5,234.5 Z"/></g>
<g><path style="opacity:0.62" fill="#87272f" d="M 251.5,233.5 C 252.458,233.953 253.292,234.619 254,235.5C 255.467,238.758 256.633,242.092 257.5,245.5C 254.992,241.818 252.992,237.818 251.5,233.5 Z"/></g>
<g><path style="opacity:0.439" fill="#832b32" d="M 129.5,236.5 C 129.002,239.326 127.669,241.66 125.5,243.5C 126.079,240.669 127.412,238.336 129.5,236.5 Z"/></g>
<g><path style="opacity:0.373" fill="#751d21" d="M 371.5,240.5 C 372.906,240.973 373.573,241.973 373.5,243.5C 372.094,243.027 371.427,242.027 371.5,240.5 Z"/></g>
<g><path style="opacity:1" fill="#a4282f" d="M 209.5,239.5 C 211.346,242.54 212.679,245.873 213.5,249.5C 210.569,246.987 209.235,243.653 209.5,239.5 Z"/></g>
<g><path style="opacity:1" fill="#83272d" d="M 213.5,249.5 C 214.537,250.93 215.204,252.597 215.5,254.5C 213.787,253.365 213.12,251.698 213.5,249.5 Z"/></g>
<g><path style="opacity:1" fill="#912a30" d="M 375.5,247.5 C 377.592,250.088 378.925,253.088 379.5,256.5C 376.642,254.288 375.309,251.288 375.5,247.5 Z"/></g>
<g><path style="opacity:1" fill="#852831" d="M 379.5,256.5 C 380.537,257.93 381.204,259.597 381.5,261.5C 379.787,260.365 379.12,258.698 379.5,256.5 Z"/></g>
<g><path style="opacity:1" fill="#ab2830" d="M 123.5,247.5 C 121.69,255.456 119.357,263.123 116.5,270.5C 115.5,271.833 114.5,273.167 113.5,274.5C 115.469,264.913 118.802,255.913 123.5,247.5 Z"/></g>
<g><path style="opacity:0.906" fill="#892534" d="M 259.5,249.5 C 264.775,256.116 268.775,263.449 271.5,271.5C 266.995,264.495 262.995,257.161 259.5,249.5 Z"/></g>
<g><path style="opacity:1" fill="#a62730" d="M 217.5,258.5 C 220.344,263.667 223.01,269 225.5,274.5C 224.5,274.5 223.5,274.5 222.5,274.5C 220.443,269.326 218.776,263.993 217.5,258.5 Z"/></g>
<g><path style="opacity:1" fill="#942b32" d="M 381.5,261.5 C 383.277,264.505 384.277,267.838 384.5,271.5C 383.883,271.389 383.383,271.056 383,270.5C 382.304,267.522 381.804,264.522 381.5,261.5 Z"/></g>
<g><path style="opacity:0.871" fill="#71182c" d="M 271.5,272.5 C 273.048,272.821 273.715,273.821 273.5,275.5C 272.599,274.71 271.932,273.71 271.5,272.5 Z"/></g>
<g><path style="opacity:1" fill="#c22730" d="M 116.5,270.5 C 115.571,276.469 113.904,282.136 111.5,287.5C 111.5,286.167 111.5,284.833 111.5,283.5C 111.42,280.219 112.087,277.219 113.5,274.5C 114.5,273.167 115.5,271.833 116.5,270.5 Z"/></g>
<g><path style="opacity:0.604" fill="#832931" d="M 273.5,275.5 C 274.376,275.369 275.043,275.702 275.5,276.5C 277.808,280.777 279.808,285.11 281.5,289.5C 278.343,285.194 275.676,280.528 273.5,275.5 Z"/></g>
<g><path style="opacity:1" fill="#9d2934" d="M 384.5,271.5 C 386.245,275.2 387.245,279.2 387.5,283.5C 386.034,282.653 385.2,281.32 385,279.5C 384.503,276.854 384.336,274.187 384.5,271.5 Z"/></g>
<g><path style="opacity:1" fill="#a02935" d="M 227.5,278.5 C 230.593,282.347 232.926,286.68 234.5,291.5C 232.224,289.669 230.391,287.336 229,284.5C 227.872,282.655 227.372,280.655 227.5,278.5 Z"/></g>
<g><path style="opacity:1" fill="#8b2734" d="M 387.5,284.5 C 389.031,289.25 389.698,294.25 389.5,299.5C 389.167,299.5 388.833,299.5 388.5,299.5C 387.947,294.518 387.613,289.518 387.5,284.5 Z"/></g>
<g><path style="opacity:0.702" fill="#852933" d="M 281.5,289.5 C 284.639,293.224 286.639,297.557 287.5,302.5C 285.13,298.414 283.13,294.081 281.5,289.5 Z"/></g>
<g><path style="opacity:1" fill="#a42834" d="M 234.5,291.5 C 236.924,294.008 238.59,297.008 239.5,300.5C 237.567,299.358 236.067,297.692 235,295.5C 234.51,294.207 234.343,292.873 234.5,291.5 Z"/></g>
<g><path style="opacity:1" fill="#7c2732" d="M 287.5,303.5 C 288.492,303.328 289.158,303.662 289.5,304.5C 289.5,305.5 289.5,306.5 289.5,307.5C 288.655,306.329 287.989,304.995 287.5,303.5 Z"/></g>
<g><path style="opacity:1" fill="#912833" d="M 111.5,283.5 C 111.5,284.833 111.5,286.167 111.5,287.5C 110.723,298.148 110.39,308.815 110.5,319.5C 110.167,319.5 109.833,319.5 109.5,319.5C 107.929,307.395 108.596,295.395 111.5,283.5 Z"/></g>
<g><path style="opacity:1" fill="#ac2630" d="M 239.5,300.5 C 241.588,302.336 242.921,304.669 243.5,307.5C 242.5,307.5 241.5,307.5 240.5,307.5C 240.326,305.139 239.993,302.806 239.5,300.5 Z"/></g>
<g><path style="opacity:1" fill="#bf282e" d="M 289.5,304.5 C 291.856,306.557 292.856,309.224 292.5,312.5C 292.167,312.5 291.833,312.5 291.5,312.5C 290.463,311.07 289.796,309.403 289.5,307.5C 289.5,306.5 289.5,305.5 289.5,304.5 Z"/></g>
<g><path style="opacity:1" fill="#b62834" d="M 243.5,307.5 C 245.341,309.849 246.674,312.515 247.5,315.5C 246.5,315.5 245.5,315.5 244.5,315.5C 244.167,312.833 243.833,310.167 243.5,307.5 Z"/></g>
<g><path style="opacity:0.486" fill="#7f242e" d="M 291.5,312.5 C 291.833,312.5 292.167,312.5 292.5,312.5C 294.086,316.343 295.086,320.343 295.5,324.5C 293.595,320.785 292.262,316.785 291.5,312.5 Z"/></g>
<g><path style="opacity:0.494" fill="#81252d" d="M 109.5,319.5 C 109.833,319.5 110.167,319.5 110.5,319.5C 111.098,324.813 111.431,330.146 111.5,335.5C 110.043,330.402 109.376,325.069 109.5,319.5 Z"/></g>
<g><path style="opacity:1" fill="#b02931" d="M 247.5,315.5 C 249.592,318.088 250.925,321.088 251.5,324.5C 248.531,322.38 247.198,319.38 247.5,315.5 Z"/></g>
<g><path style="opacity:1" fill="#8c2930" d="M 388.5,299.5 C 388.833,299.5 389.167,299.5 389.5,299.5C 391.178,314.406 389.844,329.073 385.5,343.5C 385.712,336.424 386.545,329.424 388,322.5C 388.5,314.841 388.666,307.174 388.5,299.5 Z"/></g>
<g><path style="opacity:1" fill="#a12934" d="M 251.5,324.5 C 254.412,330.799 256.412,337.465 257.5,344.5C 256.833,343.5 256.167,342.5 255.5,341.5C 253.28,336.06 251.946,330.393 251.5,324.5 Z"/></g>
<g><path style="opacity:0.886" fill="#862631" d="M 295.5,324.5 C 296.793,325.842 297.626,327.509 298,329.5C 301.75,344.662 302.416,359.996 300,375.5C 299.626,377.491 298.793,379.158 297.5,380.5C 300.572,361.7 299.905,343.034 295.5,324.5 Z"/></g>
<g><path style="opacity:1" fill="#862531" d="M 111.5,335.5 C 112.117,335.611 112.617,335.944 113,336.5C 114.156,341.46 114.989,346.46 115.5,351.5C 113.294,346.497 111.961,341.164 111.5,335.5 Z"/></g>
<g><path style="opacity:0.624" fill="#772234" d="M 385.5,343.5 C 385.59,346.152 384.924,348.485 383.5,350.5C 383.41,347.848 384.076,345.515 385.5,343.5 Z"/></g>
<g><path style="opacity:0.933" fill="#81282f" d="M 115.5,351.5 C 117.28,352.99 117.946,354.99 117.5,357.5C 116.262,355.786 115.595,353.786 115.5,351.5 Z"/></g>
<g><path style="opacity:0.761" fill="#82252f" d="M 383.5,351.5 C 383.204,353.403 382.537,355.07 381.5,356.5C 381.12,354.302 381.787,352.635 383.5,351.5 Z"/></g>
<g><path style="opacity:1" fill="#b12931" d="M 255.5,341.5 C 256.167,342.5 256.833,343.5 257.5,344.5C 259.747,352.871 259.747,361.205 257.5,369.5C 256.778,370.551 255.778,371.218 254.5,371.5C 256.822,361.603 257.155,351.603 255.5,341.5 Z"/></g>
<g><path style="opacity:1" fill="#8f2930" d="M 117.5,357.5 C 120.16,360.113 121.493,363.446 121.5,367.5C 119.654,364.46 118.321,361.127 117.5,357.5 Z"/></g>
<g><path style="opacity:1" fill="#b7272e" d="M 381.5,356.5 C 380.458,361.642 378.458,366.309 375.5,370.5C 375.322,364.717 377.322,360.05 381.5,356.5 Z"/></g>
<g><path style="opacity:0.914" fill="#7f2b2e" d="M 121.5,367.5 C 123.176,368.183 123.843,369.517 123.5,371.5C 122.326,370.486 121.66,369.153 121.5,367.5 Z"/></g>
<g><path style="opacity:0.835" fill="#61232a" d="M 375.5,371.5 C 375.34,373.153 374.674,374.486 373.5,375.5C 373.157,373.517 373.824,372.183 375.5,371.5 Z"/></g>
<g><path style="opacity:0.992" fill="#a12832" d="M 257.5,369.5 C 256.152,375.86 253.485,381.527 249.5,386.5C 249.557,385.391 249.89,384.391 250.5,383.5C 252.037,379.557 253.37,375.557 254.5,371.5C 255.778,371.218 256.778,370.551 257.5,369.5 Z"/></g>
<g><path style="opacity:1" fill="#8c262e" d="M 373.5,375.5 C 372.32,378.54 370.653,381.206 368.5,383.5C 368.238,382.022 368.571,380.689 369.5,379.5C 370.409,377.625 371.743,376.292 373.5,375.5 Z"/></g>
<g><path style="opacity:0.816" fill="#8b2632" d="M 124.5,373.5 C 125.376,373.369 126.043,373.702 126.5,374.5C 129.938,381.052 133.604,387.385 137.5,393.5C 132.174,387.524 127.841,380.857 124.5,373.5 Z"/></g>
<g><path style="opacity:1" fill="#d62329" d="M 250.5,383.5 C 249.89,384.391 249.557,385.391 249.5,386.5C 249.5,387.167 249.167,387.5 248.5,387.5C 246.1,389.296 244.433,391.63 243.5,394.5C 242.167,396.5 240.5,398.167 238.5,399.5C 237.391,399.557 236.391,399.89 235.5,400.5C 235.481,395.984 237.814,393.984 242.5,394.5C 241.61,388.084 244.277,384.417 250.5,383.5 Z"/></g>
<g><path style="opacity:1" fill="#922833" d="M 297.5,380.5 C 297.663,382.857 297.497,385.19 297,387.5C 295.656,390.865 293.823,393.865 291.5,396.5C 293.549,391.09 295.549,385.756 297.5,380.5 Z"/></g>
<g><path style="opacity:0.263" fill="#822430" d="M 368.5,383.5 C 365.985,389.348 362.318,394.348 357.5,398.5C 360.436,392.959 364.103,387.959 368.5,383.5 Z"/></g>
<g><path style="opacity:0.102" fill="#75292c" d="M 248.5,387.5 C 247.567,390.37 245.9,392.704 243.5,394.5C 244.433,391.63 246.1,389.296 248.5,387.5 Z"/></g>
<g><path style="opacity:1" fill="#822f34" d="M 139.5,396.5 C 141.531,397.539 142.864,399.205 143.5,401.5C 141.457,400.421 140.124,398.754 139.5,396.5 Z"/></g>
<g><path style="opacity:0.388" fill="#752234" d="M 291.5,396.5 C 291.771,398.38 291.104,399.713 289.5,400.5C 289.66,398.847 290.326,397.514 291.5,396.5 Z"/></g>
<g><path style="opacity:0.098" fill="#6a212e" d="M 238.5,399.5 C 237.5,401.167 236.167,402.5 234.5,403.5C 234.557,402.391 234.89,401.391 235.5,400.5C 236.391,399.89 237.391,399.557 238.5,399.5 Z"/></g>
<g><path style="opacity:0.208" fill="#792429" d="M 357.5,398.5 C 356.243,401.427 354.243,403.761 351.5,405.5C 352.757,402.573 354.757,400.239 357.5,398.5 Z"/></g>
<g><path style="opacity:0.588" fill="#7b272e" d="M 289.5,400.5 C 289.771,402.38 289.104,403.713 287.5,404.5C 287.66,402.847 288.326,401.514 289.5,400.5 Z"/></g>
<g><path style="opacity:0.741" fill="#6c2c33" d="M 287.5,404.5 C 287.573,406.027 286.906,407.027 285.5,407.5C 285.427,405.973 286.094,404.973 287.5,404.5 Z"/></g>
<g><path style="opacity:0.659" fill="#6c2132" d="M 147.5,406.5 C 149.749,407.08 151.415,408.413 152.5,410.5C 150.251,409.92 148.585,408.587 147.5,406.5 Z"/></g>
<g><path style="opacity:1" fill="#912934" d="M 152.5,410.5 C 155.833,411.833 158.167,414.167 159.5,417.5C 156.833,415.5 154.5,413.167 152.5,410.5 Z"/></g>
<g><path style="opacity:1" fill="#962731" d="M 233.5,403.5 C 228.871,408.151 223.537,411.818 217.5,414.5C 218.141,413.518 218.807,412.518 219.5,411.5C 224.453,409.187 229.119,406.52 233.5,403.5 Z"/></g>
<g><path style="opacity:1" fill="#98282e" d="M 217.5,414.5 C 215.819,416.008 213.819,417.008 211.5,417.5C 212.68,415.087 214.68,414.087 217.5,414.5 Z"/></g>
<g><path style="opacity:0.749" fill="#7a282d" d="M 284.5,409.5 C 283.99,412.674 282.323,415.008 279.5,416.5C 280.786,413.883 282.453,411.55 284.5,409.5 Z"/></g>
<g><path style="opacity:1" fill="#ac232e" d="M 345.5,411.5 C 342.291,415.445 338.624,418.945 334.5,422C 332.922,423.094 331.255,423.928 329.5,424.5C 331.498,422.4 333.665,420.4 336,418.5C 336,417.167 336,415.833 336,414.5C 337.356,415.38 338.856,415.714 340.5,415.5C 340.5,414.5 340.5,413.5 340.5,412.5C 342.216,412.371 343.883,412.038 345.5,411.5 Z"/></g>
<g><path style="opacity:1" fill="#9a2731" d="M 159.5,417.5 C 162.398,418.118 165.065,419.285 167.5,421C 168.252,421.671 168.586,422.504 168.5,423.5C 164.951,422.277 161.951,420.277 159.5,417.5 Z"/></g>
<g><path style="opacity:1" fill="#a12731" d="M 211.5,417.5 C 206.484,420.674 201.151,423.341 195.5,425.5C 199.799,420.862 205.133,418.195 211.5,417.5 Z"/></g>
<g><path style="opacity:0.392" fill="#772133" d="M 168.5,423.5 C 170.027,423.427 171.027,424.094 171.5,425.5C 169.973,425.573 168.973,424.906 168.5,423.5 Z"/></g>
<g><path style="opacity:0.945" fill="#892830" d="M 279.5,416.5 C 274.167,425.167 267.167,432.167 258.5,437.5C 265.833,430.833 272.833,423.833 279.5,416.5 Z"/></g>
<g><path style="opacity:1" fill="#942930" d="M 172.5,425.5 C 179.841,426.79 187.174,426.79 194.5,425.5C 191.042,427.432 187.209,428.432 183,428.5C 179.098,428.487 175.598,427.487 172.5,425.5 Z"/></g>
<g><path style="opacity:1" fill="#9d2632" d="M 329.5,424.5 C 324.176,429.167 318.176,432.834 311.5,435.5C 312.475,433.807 313.808,432.307 315.5,431C 319.738,428.049 324.405,425.883 329.5,424.5 Z"/></g>
<g><path style="opacity:1" fill="#9c2a31" d="M 310.5,435.5 C 306.584,438.257 302.25,440.257 297.5,441.5C 301.085,438.248 305.418,436.248 310.5,435.5 Z"/></g>
<g><path style="opacity:0.365" fill="#7f2130" d="M 296.5,441.5 C 294.786,442.738 292.786,443.405 290.5,443.5C 292.102,441.926 294.102,441.259 296.5,441.5 Z"/></g>
<g><path style="opacity:0.557" fill="#63232b" d="M 290.5,443.5 C 288.485,444.924 286.152,445.59 283.5,445.5C 285.515,444.076 287.848,443.41 290.5,443.5 Z"/></g>
<g><path style="opacity:0.663" fill="#8e262f" d="M 258.5,437.5 C 258.5,438.5 258.5,439.5 258.5,440.5C 253.291,440.856 250.957,443.356 251.5,448C 262.236,448.158 272.903,447.325 283.5,445.5C 273.164,448.609 262.497,450.109 251.5,450C 247.691,448.891 246.857,446.724 249,443.5C 252.139,441.353 255.305,439.353 258.5,437.5 Z"/></g>
</svg>
