<?xml version="1.0" standalone="no"?>
<!DOCTYPE svg PUBLIC "-//W3C//DTD SVG 20010904//EN"
 "http://www.w3.org/TR/2001/REC-SVG-20010904/DTD/svg10.dtd">
<svg version="1.0" xmlns="http://www.w3.org/2000/svg"
 width="100.000000pt" height="100.000000pt" viewBox="0 0 100.000000 100.000000"
 preserveAspectRatio="xMidYMid meet">

<g transform="translate(0.000000,100.000000) scale(0.100000,-0.100000)"
fill="#000000" stroke="none">
<path d="M403 841 c-112 -29 -212 -115 -265 -227 -24 -52 -32 -83 -36 -153 -7
-125 14 -190 80 -253 27 -27 53 -48 57 -48 16 0 50 46 55 75 6 29 6 29 -7 -4
-17 -45 -46 -66 -64 -48 -11 11 -11 18 2 43 21 41 21 277 0 318 -17 32 -12 46
16 46 14 0 26 -13 39 -42 11 -24 20 -36 20 -28 0 25 -39 80 -57 80 -9 0 -25
-7 -35 -17 -29 -26 -31 -9 -4 45 33 64 113 135 184 163 79 31 190 32 254 2 58
-27 131 -100 164 -164 27 -55 31 -74 8 -41 -23 33 -60 29 -84 -11 -11 -17 -20
-39 -20 -47 0 -8 9 4 20 28 16 35 24 43 42 40 31 -4 57 -55 68 -130 l9 -63 -4
60 c-2 33 -6 69 -10 80 -7 20 -6 20 9 0 49 -59 49 -251 0 -310 -15 -19 -15
-19 -9 5 3 14 8 52 10 85 l4 60 -9 -63 c-10 -74 -37 -126 -67 -130 -25 -4 -41
20 -60 93 l-13 50 5 -44 c7 -53 28 -97 55 -111 17 -9 25 -6 45 14 14 14 29 25
33 24 4 0 16 14 27 33 17 29 20 52 20 164 0 125 -1 132 -32 197 -42 89 -110
160 -189 199 -52 26 -78 32 -146 35 -46 2 -97 -1 -115 -5z m-184 -318 c14 -49
14 -227 0 -275 -5 -21 -16 -38 -24 -38 -19 0 -55 53 -71 107 -18 60 -18 71 3
69 14 -1 19 14 28 74 5 41 14 81 18 88 15 23 36 12 46 -25z"/>
<path d="M702 485 c0 -16 2 -22 5 -12 2 9 2 23 0 30 -3 6 -5 -1 -5 -18z"/>
<path d="M754 488 c-9 -30 -9 -177 0 -205 9 -29 33 -30 41 -1 10 28 10 155 1
196 -9 37 -31 42 -42 10z"/>
<path d="M302 480 c0 -14 2 -19 5 -12 2 6 2 18 0 25 -3 6 -5 1 -5 -13z"/>
<path d="M693 395 c0 -33 2 -45 4 -27 2 18 2 45 0 60 -2 15 -4 0 -4 -33z"/>
<path d="M313 385 c0 -33 2 -45 4 -27 2 18 2 45 0 60 -2 15 -4 0 -4 -33z"/>
<path d="M302 290 c0 -14 2 -19 5 -12 2 6 2 18 0 25 -3 6 -5 1 -5 -13z"/>
</g>
</svg>
