<svg
            className="social-icon-logo"
            xmlns="http://www.w3.org/2000/svg"
            viewBox="0 0 24 24"
            width="25"
            height="25"
          >
            <path
              fill="#FFA500"
              d="M22.46 5.54c-.81.36-1.68.61-2.6.72.94-.56 1.66-1.44 2-2.5-.88.52-1.86.9-2.91 1.1-.84-.9-2.04-1.46-3.36-1.46-2.54 0-4.6 2.06-4.6 4.6 0 .36.04.72.1 1.06-3.83-.2-7.22-2.03-9.49-4.82-.4.68-.63 1.48-.63 2.33 0 1.6.81 3.02 2.04 3.85-.75-.02-1.45-.23-2.06-.58v.06c0 2.24 1.59 4.1 3.7 4.52-.4.12-.82.18-1.26.18-.3 0-.6-.02-.9-.07.6 1.8 2.3 3.12 4.32 3.15-1.58 1.24-3.58 1.98-5.75 1.98-.37 0-.74-.02-1.1-.06 2.05 1.32 4.47 2.09 7.08 2.09 8.5 0 13.13-7.03 13.13-13.13 0-.2 0-.4-.02-.6.9-.66 1.68-1.49 2.3-2.44z"
            />
          </svg>